Coordinates
version=1
nRows=15
nColumns=38
inDegrees=no

Units are S.I. units (second, meters, Newtons, ...)
If the header above contains a line with 'inDegrees', this indicates whether rotational values are in degrees (yes) or radians (no).

endheader
time	pelvis_tilt	pelvis_list	pelvis_rotation	pelvis_tx	pelvis_ty	pelvis_tz	hip_flexion_r	hip_adduction_r	hip_rotation_r	knee_angle_r	ankle_angle_r	subtalar_angle_r	mtp_angle_r	hip_flexion_l	hip_adduction_l	hip_rotation_l	knee_angle_l	ankle_angle_l	subtalar_angle_l	mtp_angle_l	lumbar_extension	lumbar_bending	lumbar_rotation	arm_flex_r	arm_add_r	arm_rot_r	elbow_flex_r	pro_sup_r	wrist_flex_r	wrist_dev_r	arm_flex_l	arm_add_l	arm_rot_l	elbow_flex_l	pro_sup_l	wrist_flex_l	wrist_dev_l
0.3815	-0.0902579	0.0164666	-0.0902356	0.143132	1.03592	-0.000857429	0.461214	-0.0339891	-0.107302	0.356997	-0.0577908	0.184656	0.0698557	-0.0943164	-0.033725	-0.22716	0.700091	-0.185074	0.0128061	0.0767612	-0.200834	-0.00417836	-0.00954365	-0.583502	-0.176331	-0.334828	1.69077	1.17833	-0.00284457	0.0903347	-0.068255	-0.240037	0.0699371	2.09967	1.21572	0.0348164	0.0951338
0.382499	-0.0900075	0.0163541	-0.0898576	0.143131	1.03542	-0.000781997	0.461307	-0.0339149	-0.107468	0.358927	-0.0559706	0.183315	0.0686435	-0.0924293	-0.0346933	-0.22655	0.706219	-0.184421	0.011583	0.0758329	-0.20125	-0.00403625	-0.00968507	-0.581627	-0.178498	-0.33363	1.69071	1.17825	-0.00282212	0.0903141	-0.0702215	-0.239355	0.0704448	2.0986	1.21549	0.034787	0.0951152
0.383497	-0.0897448	0.0162424	-0.0894744	0.143128	1.03491	-0.000706194	0.4614	-0.0338484	-0.107629	0.360964	-0.0540693	0.181942	0.0674045	-0.0905243	-0.0356668	-0.225939	0.712383	-0.183736	0.0103613	0.0749232	-0.201683	-0.00390132	-0.00982778	-0.579719	-0.180683	-0.332417	1.69063	1.17817	-0.00279966	0.0902936	-0.0721952	-0.238669	0.0709301	2.0975	1.21525	0.0347576	0.0950966
0.384496	-0.0894695	0.0161313	-0.0890862	0.143123	1.03439	-0.000630019	0.461491	-0.0337895	-0.107784	0.363105	-0.0520868	0.180537	0.0661392	-0.0886019	-0.0366453	-0.225329	0.718583	-0.183019	0.00914107	0.074032	-0.202134	-0.00377353	-0.00997124	-0.577777	-0.182885	-0.331189	1.69055	1.1781	-0.00277721	0.090273	-0.0741752	-0.23798	0.0713933	2.09637	1.21501	0.0347282	0.095078
0.385495	-0.0891814	0.0160208	-0.0886931	0.143116	1.03386	-0.000553471	0.46158	-0.033738	-0.107933	0.36535	-0.0500233	0.179104	0.0648478	-0.0866627	-0.0376287	-0.224718	0.724816	-0.182271	0.00792217	0.0731591	-0.202602	-0.00365282	-0.0101149	-0.575803	-0.185104	-0.329947	1.69045	1.17802	-0.00275476	0.0902525	-0.0761611	-0.237286	0.0718348	2.09521	1.21476	0.0346987	0.0950594
0.386493	-0.0888804	0.0159107	-0.0882951	0.143107	1.03333	-0.000476553	0.461665	-0.0336939	-0.108077	0.367696	-0.0478789	0.177642	0.0635306	-0.0847072	-0.0386171	-0.224107	0.731083	-0.181493	0.0067046	0.0723042	-0.203089	-0.00353916	-0.0102581	-0.573796	-0.187339	-0.328691	1.69034	1.17795	-0.0027323	0.0902319	-0.0781522	-0.236588	0.072255	2.09402	1.21451	0.0346693	0.0950408
0.387492	-0.0885661	0.0158011	-0.0878924	0.143096	1.03279	-0.000399265	0.461747	-0.0336569	-0.108214	0.370143	-0.0456537	0.176153	0.062188	-0.0827361	-0.0396103	-0.223496	0.737381	-0.180685	0.00548834	0.0714671	-0.203593	-0.00343248	-0.0104003	-0.571757	-0.18959	-0.327421	1.69022	1.17787	-0.00270985	0.0902113	-0.0801478	-0.235886	0.0726541	2.0928	1.21425	0.0346399	0.0950222
0.388491	-0.0882383	0.0156918	-0.087485	0.143083	1.03225	-0.00032161	0.461825	-0.033627	-0.108346	0.372688	-0.043348	0.174639	0.0608205	-0.08075	-0.0406082	-0.222886	0.743709	-0.179848	0.00427334	0.0706476	-0.204114	-0.00333273	-0.0105407	-0.569686	-0.191856	-0.32614	1.69008	1.1778	-0.0026874	0.0901908	-0.0821473	-0.23518	0.0730328	2.09156	1.21399	0.0346105	0.0950036
0.389489	-0.0878968	0.0155827	-0.0870731	0.143068	1.03169	-0.000243591	0.461897	-0.0336041	-0.108472	0.375329	-0.040962	0.173101	0.0594283	-0.0787495	-0.0416108	-0.222275	0.750066	-0.178983	0.00305957	0.0698455	-0.204654	-0.00323987	-0.0106789	-0.567583	-0.194136	-0.324846	1.68993	1.17773	-0.00266494	0.0901702	-0.0841499	-0.234469	0.0733913	2.09028	1.21372	0.0345811	0.0949851
0.390488	-0.0875414	0.0154737	-0.0866567	0.143052	1.03113	-0.000165214	0.461963	-0.033588	-0.108591	0.378065	-0.038496	0.171541	0.0580121	-0.076735	-0.0426179	-0.221665	0.756451	-0.178089	0.00184698	0.0690605	-0.205212	-0.00315381	-0.010814	-0.56545	-0.19643	-0.323541	1.68977	1.17766	-0.00264249	0.0901497	-0.086155	-0.233755	0.0737302	2.08897	1.21345	0.0345516	0.0949665
0.391487	-0.0871718	0.0153648	-0.0862361	0.143033	1.03056	-8.64842e-05	0.462022	-0.0335785	-0.108705	0.380895	-0.0359506	0.169961	0.0565722	-0.0747073	-0.0436295	-0.221056	0.762863	-0.177168	0.000635526	0.0682923	-0.205787	-0.00307451	-0.0109454	-0.563287	-0.198737	-0.322226	1.6896	1.17759	-0.00262003	0.0901291	-0.0881619	-0.233037	0.07405	2.08763	1.21317	0.0345222	0.0949479
0.392486	-0.0867879	0.0152559	-0.0858111	0.143013	1.02999	-7.40756e-06	0.462074	-0.0335757	-0.108813	0.383816	-0.0333262	0.168361	0.0551092	-0.0726668	-0.0446455	-0.220446	0.769301	-0.176221	-0.000574831	0.0675406	-0.206381	-0.00300189	-0.0110723	-0.561093	-0.201057	-0.320901	1.68941	1.17753	-0.00259758	0.0901085	-0.0901697	-0.232315	0.0743511	2.08626	1.21289	0.0344928	0.0949293
0.393484	-0.0863894	0.0151468	-0.0853821	0.142991	1.02941	7.20081e-05	0.462118	-0.0335793	-0.108914	0.386826	-0.0306232	0.166743	0.0536236	-0.0706141	-0.0456658	-0.219838	0.775763	-0.175248	-0.00178414	0.0668052	-0.206993	-0.00293589	-0.0111942	-0.55887	-0.203389	-0.319567	1.68921	1.17746	-0.00257512	0.0900879	-0.092178	-0.231589	0.0746341	2.08486	1.2126	0.0344634	0.0949107
0.394483	-0.0859761	0.0150376	-0.084949	0.142967	1.02882	0.000151754	0.462153	-0.0335893	-0.10901	0.389923	-0.0278423	0.165109	0.052116	-0.0685498	-0.0466903	-0.21923	0.782248	-0.174249	-0.00299243	0.0660857	-0.207622	-0.00287643	-0.0113101	-0.556617	-0.205733	-0.318225	1.689	1.1774	-0.00255267	0.0900674	-0.0941858	-0.23086	0.0748995	2.08343	1.21231	0.034434	0.0948921
0.395482	-0.0855479	0.0149281	-0.0845121	0.142941	1.02823	0.000231822	0.462178	-0.0336055	-0.109099	0.393106	-0.0249842	0.16346	0.0505871	-0.0664744	-0.0477188	-0.218623	0.788754	-0.173225	-0.00419976	0.0653819	-0.20827	-0.00282344	-0.0114196	-0.554337	-0.208087	-0.316875	1.68878	1.17734	-0.00253021	0.0900468	-0.0961926	-0.230126	0.0751477	2.08196	1.21201	0.0344045	0.0948735
